<svg xmlns="http://www.w3.org/2000/svg" xmlns:xlink="http://www.w3.org/1999/xlink" version="1.1" width="836.5641619696639" height="632.7915061847272"><desc>title%20How%20tool%20calling%20DOES%20work%0A%0Aparticipant%20openweather.org%0Aactor%20User%0Amaterialdesignicons%20F167A%20Assistant%0A%0AUser-%3EAssistant%3A%20%7B%5Cn%20%20role%3A%20%22user%22%2C%5Cn%20%20content%3A%20%22What's%20the%20weather%20right%20now%20at%20Fenway%20Park%3F%22%2C%5Cn%20%20tools%3A%20%5Bget_current_weather%5D%5Cn%7D%0AAssistant-%3EUser%3A%20CALL%20get_current_weather(%2202215%22)%0AUser-%3Eopenweather.org%3A%20GET%20%2Fweather%2Fcurrent%2Fus%2F02215.json%0Aopenweather.org-%3EUser%3A%20%7B%22temp%22%3A%2065%2C%20%22conditions%22%3A%20%22sunny%22%7D%0AUser-%3EAssistant%3A%20RETURN%20%7B%22temp%22%3A%2065%2C%20%22conditions%22%3A%20%22sunny%22%7D%0AAssistant-%3EUser%3A%20%7B%5Cn%20%20role%3A%20%22assistant%22%2C%5Cn%20%20content%3A%20%22It's%2065%20degrees%20and%20sunny%E2%80%94a%20beautiful%20day!%22%5Cn%7D</desc><defs/><g><g/><g/><g/><g/><g/><g/><g/><g/><g/><g/><g/><g/><g/><g/><g/><g/><g/><g/><g/><g/><g/><g/><g/><g/><g/><g/><g/><g/><g/><g/><g/><g/><g/><g/><g/><g/><g/><g/><g/><g/><g/><g/><g/><g/><g/><g/><g/><g/><g/><g/><g/><g/><g/><g/><g/><g/><g/><g/><g/><g/><g/><g/><g/><g/><g/><g/><g/><g/><g/><g/><g/><g/><g/><g/><g/><g/><g/><g/><g/><g/><g/><g/><g/><g/><g/><g/><g/><g/><g/><g/><g/><g/><g/><g/><g/><g/><g/><g/><g/><g/><g/><g/><g/><g/><g/><g/><g/><g/><g/><g/><g><rect fill="white" stroke="none" x="0" y="0" width="836" height="632"/></g><g/><g><path fill="none" stroke="black" paint-order="fill stroke markers" d=" M 82.52127929003517 143.74065046472725 L 82.52127929003517 632.7915061847272" stroke-miterlimit="10" stroke-width="1.4659797833333332" stroke-dasharray="13.532121076923076,5.863919133333333"/><path fill="none" stroke="black" paint-order="fill stroke markers" d=" M 365.03749647718524 143.74065046472725 L 365.03749647718524 632.7915061847272" stroke-miterlimit="10" stroke-width="1.4659797833333332" stroke-dasharray="13.532121076923076,5.863919133333333"/><path fill="none" stroke="black" paint-order="fill stroke markers" d=" M 793.6402739136639 143.74065046472725 L 793.6402739136639 632.7915061847272" stroke-miterlimit="10" stroke-width="1.4659797833333332" stroke-dasharray="13.532121076923076,5.863919133333333"/></g><g><path fill="none" stroke="none"/><g><path fill="white" stroke="black" paint-order="fill stroke markers" d=" M 8.795878700000003 96.24290548472726 L 156.24667988007033 96.24290548472726 L 156.24667988007033 143.74065046472725 L 8.795878700000003 143.74065046472725 L 8.795878700000003 96.24290548472726 Z" stroke-miterlimit="10" stroke-width="2.814681184" stroke-dasharray=""/></g><g><g/><text fill="black" stroke="none" font-family="sans-serif" font-size="11pt" font-style="normal" font-weight="normal" text-decoration="normal" x="27.88293547900001" y="126.14889306472728" text-anchor="start" dominant-baseline="alphabetic" xml:space="preserve">openweather.org</text></g><g><path fill="white" stroke="black" paint-order="fill stroke markers" d=" M 375.06479819518523 69.32751666272726 A 10.027301717999999 10.027301717999999 0 1 1 375.0647931815348 69.31748936268048 M 365.03749647718524 79.35481838072725 L 365.03749647718524 100.81676240872724 M 352.37143114918524 87.09519163672726 L 377.70356180518525 87.09519163672726 M 365.03749647718524 100.81676240872724 L 352.37143114918524 120.87136584472725 M 365.03749647718524 100.81676240872724 L 377.70356180518525 120.87136584472725" stroke-miterlimit="10" stroke-width="2.990598758" stroke-dasharray=""/></g><g><g/><text fill="black" stroke="none" font-family="sans-serif" font-size="11pt" font-style="normal" font-weight="normal" text-decoration="normal" x="349.55442324262714" y="138.46312324472726" text-anchor="start" dominant-baseline="alphabetic" xml:space="preserve">User</text></g><svg xmlns="http://www.w3.org/2000/svg" viewBox="0 0 24 24" id="mdi-robot-outline" width="68.256018712" height="68.256018712" x="759.5122645576639" y="52.61534713272725"><path d="M17.5 15.5C17.5 16.61 16.61 17.5 15.5 17.5S13.5 16.61 13.5 15.5 14.4 13.5 15.5 13.5 17.5 14.4 17.5 15.5M8.5 13.5C7.4 13.5 6.5 14.4 6.5 15.5S7.4 17.5 8.5 17.5 10.5 16.61 10.5 15.5 9.61 13.5 8.5 13.5M23 15V18C23 18.55 22.55 19 22 19H21V20C21 21.11 20.11 22 19 22H5C3.9 22 3 21.11 3 20V19H2C1.45 19 1 18.55 1 18V15C1 14.45 1.45 14 2 14H3C3 10.13 6.13 7 10 7H11V5.73C10.4 5.39 10 4.74 10 4C10 2.9 10.9 2 12 2S14 2.9 14 4C14 4.74 13.6 5.39 13 5.73V7H14C17.87 7 21 10.13 21 14H22C22.55 14 23 14.45 23 15M21 16H19V14C19 11.24 16.76 9 14 9H10C7.24 9 5 11.24 5 14V16H3V17H5V20H19V17H21V16Z"/></svg><g><g/><text fill="black" stroke="none" font-family="sans-serif" font-size="11pt" font-style="normal" font-weight="normal" text-decoration="normal" x="763.8879927246991" y="138.46312324472726" text-anchor="start" dominant-baseline="alphabetic" xml:space="preserve">Assistant</text></g></g><g><g><text fill="black" stroke="none" font-family="sans-serif" font-size="16pt" font-style="normal" font-weight="normal" text-decoration="normal" x="284.6197853088379" y="26.547561167272725" text-anchor="start" dominant-baseline="alphabetic" xml:space="preserve">How tool calling DOES work</text></g><g><rect fill="white" stroke="none" x="385.8544094005186" y="178.92416526472726" width="10.17596472" height="22.86928462"/><rect fill="white" stroke="none" x="385.8544094005186" y="196.51592266472727" width="89.05226934646484" height="22.86928462"/><rect fill="white" stroke="none" x="385.8544094005186" y="214.10768006472728" width="386.96893347" height="22.86928462"/><rect fill="white" stroke="none" x="385.8544094005186" y="231.69943746472728" width="195.23522985671875" height="22.86928462"/><rect fill="white" stroke="none" x="385.8544094005186" y="249.2911948647273" width="10.17596472" height="22.86928462"/><text fill="black" stroke="none" font-family="sans-serif" font-size="11pt" font-style="normal" font-weight="normal" text-decoration="normal" x="388.4931730105186" y="194.75674692472728" text-anchor="start" dominant-baseline="alphabetic" xml:space="preserve">{</text><text fill="black" stroke="none" font-family="sans-serif" font-size="11pt" font-style="normal" font-weight="normal" text-decoration="normal" x="388.4931730105186" y="212.3485043247273" text-anchor="start" dominant-baseline="alphabetic" xml:space="preserve">  role: "user",</text><text fill="black" stroke="none" font-family="sans-serif" font-size="11pt" font-style="normal" font-weight="normal" text-decoration="normal" x="388.4931730105186" y="229.9402617247273" text-anchor="start" dominant-baseline="alphabetic" xml:space="preserve">  content: "What's the weather right now at Fenway Park?",</text><text fill="black" stroke="none" font-family="sans-serif" font-size="11pt" font-style="normal" font-weight="normal" text-decoration="normal" x="388.4931730105186" y="247.5320191247273" text-anchor="start" dominant-baseline="alphabetic" xml:space="preserve">  tools: [get_current_weather]</text><text fill="black" stroke="none" font-family="sans-serif" font-size="11pt" font-style="normal" font-weight="normal" text-decoration="normal" x="388.4931730105186" y="265.1237765247273" text-anchor="start" dominant-baseline="alphabetic" xml:space="preserve">}</text></g><g><path fill="none" stroke="black" paint-order="fill stroke markers" d=" M 365.03749647718524 272.16047948472726 L 779.1563936543306 272.16047948472726" stroke-miterlimit="10" stroke-width="1.4659797833333332" stroke-dasharray=""/><g transform="translate(793.6402739136639,272.16047948472726) translate(-793.6402739136639,-272.16047948472726)"><path fill="black" stroke="none" paint-order="stroke fill markers" d=" M 778.9804760803306 264.8305805680606 L 793.6402739136639 272.16047948472726 L 778.9804760803306 279.4903784013939 Z"/></g></g><g><rect fill="white" stroke="none" x="458.5718733707029" y="298.54811558472727" width="240.9969638655078" height="22.86928462"/><text fill="black" stroke="none" font-family="sans-serif" font-size="11pt" font-style="normal" font-weight="normal" text-decoration="normal" x="461.21063698070293" y="314.3806972447273" text-anchor="start" dominant-baseline="alphabetic" xml:space="preserve">CALL get_current_weather("02215")</text></g><g><path fill="none" stroke="black" paint-order="fill stroke markers" d=" M 793.6402739136639 321.41740020472724 L 379.52137673651856 321.41740020472724" stroke-miterlimit="10" stroke-width="1.4659797833333332" stroke-dasharray=""/><g transform="translate(365.03749647718524,321.41740020472724) translate(-365.03749647718524,-321.41740020472724)"><path fill="black" stroke="none" paint-order="stroke fill markers" d=" M 379.6972943105186 314.0875012880606 L 365.03749647718524 321.41740020472724 L 379.6972943105186 328.7472991213939 Z"/></g></g><g><rect fill="white" stroke="none" x="103.33819221336849" y="347.80503630472725" width="240.62458837722656" height="22.86928462"/><text fill="black" stroke="none" font-family="sans-serif" font-size="11pt" font-style="normal" font-weight="normal" text-decoration="normal" x="105.97695582336848" y="363.63761796472727" text-anchor="start" dominant-baseline="alphabetic" xml:space="preserve">GET /weather/current/us/02215.json</text></g><g><path fill="none" stroke="black" paint-order="fill stroke markers" d=" M 365.03749647718524 370.6743209247272 L 97.0051595493685 370.6743209247272" stroke-miterlimit="10" stroke-width="1.4659797833333332" stroke-dasharray=""/><g transform="translate(82.52127929003517,370.6743209247272) translate(-82.52127929003517,-370.6743209247272)"><path fill="black" stroke="none" paint-order="stroke fill markers" d=" M 97.1810771233685 363.3444220080606 L 82.52127929003517 370.6743209247272 L 97.1810771233685 378.0042198413939 Z"/></g></g><g><rect fill="white" stroke="none" x="111.34830020744808" y="397.06195702472723" width="224.86215246414062" height="22.86928462"/><text fill="black" stroke="none" font-family="sans-serif" font-size="11pt" font-style="normal" font-weight="normal" text-decoration="normal" x="113.98706381744807" y="412.89453868472725" text-anchor="start" dominant-baseline="alphabetic" xml:space="preserve">{"temp": 65, "conditions": "sunny"}</text></g><g><path fill="none" stroke="black" paint-order="fill stroke markers" d=" M 82.52127929003517 419.9312416447272 L 350.5536162178519 419.9312416447272" stroke-miterlimit="10" stroke-width="1.4659797833333332" stroke-dasharray=""/><g transform="translate(365.03749647718524,419.9312416447272) translate(-365.03749647718524,-419.9312416447272)"><path fill="black" stroke="none" paint-order="stroke fill markers" d=" M 350.3776986438519 412.60134272806056 L 365.03749647718524 419.9312416447272 L 350.3776986438519 427.26114056139386 Z"/></g></g><g><rect fill="white" stroke="none" x="434.31599873691385" y="446.3188777447272" width="290.0458072492969" height="22.86928462"/><text fill="black" stroke="none" font-family="sans-serif" font-size="11pt" font-style="normal" font-weight="normal" text-decoration="normal" x="436.95476234691387" y="462.15145940472723" text-anchor="start" dominant-baseline="alphabetic" xml:space="preserve">RETURN {"temp": 65, "conditions": "sunny"}</text></g><g><path fill="none" stroke="black" paint-order="fill stroke markers" d=" M 365.03749647718524 469.1881623647272 L 779.1563936543306 469.1881623647272" stroke-miterlimit="10" stroke-width="1.4659797833333332" stroke-dasharray=""/><g transform="translate(793.6402739136639,469.1881623647272) translate(-793.6402739136639,-469.1881623647272)"><path fill="black" stroke="none" paint-order="stroke fill markers" d=" M 778.9804760803306 461.85826344806054 L 793.6402739136639 469.1881623647272 L 778.9804760803306 476.51806128139384 Z"/></g></g><g><rect fill="white" stroke="none" x="398.4621526637632" y="495.57579846472714" width="10.17596472" height="22.86928462"/><rect fill="white" stroke="none" x="398.4621526637632" y="513.1675558647272" width="118.39991796707031" height="22.86928462"/><rect fill="white" stroke="none" x="398.4621526637632" y="530.7593132647272" width="361.753357298125" height="22.86928462"/><rect fill="white" stroke="none" x="398.4621526637632" y="548.3510706647272" width="10.17596472" height="22.86928462"/><text fill="black" stroke="none" font-family="sans-serif" font-size="11pt" font-style="normal" font-weight="normal" text-decoration="normal" x="401.10091627376323" y="511.40838012472716" text-anchor="start" dominant-baseline="alphabetic" xml:space="preserve">{</text><text fill="black" stroke="none" font-family="sans-serif" font-size="11pt" font-style="normal" font-weight="normal" text-decoration="normal" x="401.10091627376323" y="529.0001375247272" text-anchor="start" dominant-baseline="alphabetic" xml:space="preserve">  role: "assistant",</text><text fill="black" stroke="none" font-family="sans-serif" font-size="11pt" font-style="normal" font-weight="normal" text-decoration="normal" x="401.10091627376323" y="546.5918949247272" text-anchor="start" dominant-baseline="alphabetic" xml:space="preserve">  content: "It's 65 degrees and sunny—a beautiful day!"</text><text fill="black" stroke="none" font-family="sans-serif" font-size="11pt" font-style="normal" font-weight="normal" text-decoration="normal" x="401.10091627376323" y="564.1836523247272" text-anchor="start" dominant-baseline="alphabetic" xml:space="preserve">}</text></g><g><path fill="none" stroke="black" paint-order="fill stroke markers" d=" M 793.6402739136639 571.2203552847271 L 379.52137673651856 571.2203552847271" stroke-miterlimit="10" stroke-width="1.4659797833333332" stroke-dasharray=""/><g transform="translate(365.03749647718524,571.2203552847271) translate(-365.03749647718524,-571.2203552847271)"><path fill="black" stroke="none" paint-order="stroke fill markers" d=" M 379.6972943105186 563.8904563680604 L 365.03749647718524 571.2203552847271 L 379.6972943105186 578.5502542013938 Z"/></g></g></g><g/><g/><g/></g></svg>