<svg xmlns="http://www.w3.org/2000/svg" xmlns:xlink="http://www.w3.org/1999/xlink" version="1.1" width="817.919225848222" height="516.6859073447272"><desc>title%20How%20tool%20calling%20DOESN%E2%80%99T%20work%0A%0Aactor%20User%0Amaterialdesignicons%20F167A%20Assistant%0Aparticipant%20openweather.org%0A%0AUser-%3EAssistant%3A%20%7B%5Cn%20%20role%3A%20%22user%22%2C%5Cn%20%20content%3A%20%22What's%20the%20weather%20right%20now%20at%20Fenway%20Park%3F%22%2C%5Cn%7D%0AAssistant-%3Eopenweather.org%3A%20GET%20%2Fweather%2Fcurrent%2Fus%2F02215.json%0Aopenweather.org-%3EAssistant%3A%20%7B%22temp%22%3A%2065%2C%20%22conditions%22%3A%20%22sunny%22%7D%0AAssistant-%3EUser%3A%20%7B%5Cn%20%20role%3A%20%22assistant%22%2C%5Cn%20%20content%3A%20%22It's%2065%20degrees%20and%20sunny%E2%80%94a%20beautiful%20day!%22%5Cn%7D</desc><defs/><g><g/><g/><g/><g/><g/><g/><g/><g/><g/><g/><g/><g/><g/><g/><g/><g/><g/><g/><g/><g/><g/><g/><g/><g/><g/><g/><g/><g/><g/><g/><g/><g/><g/><g/><g/><g/><g/><g/><g/><g/><g/><g/><g/><g/><g/><g/><g/><g/><g/><g/><g/><g/><g/><g/><g/><g/><g/><g/><g/><g/><g/><g/><g/><g/><g/><g/><g/><g/><g/><g/><g/><g/><g/><g/><g/><g/><g/><g/><g/><g/><g/><g/><g/><g/><g/><g/><g/><g/><g><rect fill="white" stroke="none" x="0" y="0" width="817" height="516"/></g><g/><g><path fill="none" stroke="black" paint-order="fill stroke markers" d=" M 24.278951934558105 143.74065046472725 L 24.278951934558105 516.6859073447272" stroke-miterlimit="10" stroke-width="1.4659797833333332" stroke-dasharray="13.532121076923076,5.863919133333333"/><path fill="none" stroke="black" paint-order="fill stroke markers" d=" M 452.8817293710368 143.74065046472725 L 452.8817293710368 516.6859073447272" stroke-miterlimit="10" stroke-width="1.4659797833333332" stroke-dasharray="13.532121076923076,5.863919133333333"/><path fill="none" stroke="black" paint-order="fill stroke markers" d=" M 735.3979465581868 143.74065046472725 L 735.3979465581868 516.6859073447272" stroke-miterlimit="10" stroke-width="1.4659797833333332" stroke-dasharray="13.532121076923076,5.863919133333333"/></g><g><g><path fill="white" stroke="black" paint-order="fill stroke markers" d=" M 34.306253652558105 69.32751666272726 A 10.027301717999999 10.027301717999999 0 1 1 34.30624863890766 69.31748936268048 M 24.278951934558105 79.35481838072725 L 24.278951934558105 100.81676240872724 M 11.612886606558106 87.09519163672726 L 36.9450172625581 87.09519163672726 M 24.278951934558105 100.81676240872724 L 11.612886606558106 120.87136584472725 M 24.278951934558105 100.81676240872724 L 36.9450172625581 120.87136584472725" stroke-miterlimit="10" stroke-width="2.990598758" stroke-dasharray=""/></g><g><g/><text fill="black" stroke="none" font-family="sans-serif" font-size="11pt" font-style="normal" font-weight="normal" text-decoration="normal" x="8.7958787" y="138.46312324472726" text-anchor="start" dominant-baseline="alphabetic" xml:space="preserve">User</text></g><svg xmlns="http://www.w3.org/2000/svg" viewBox="0 0 24 24" id="mdi-robot-outline" width="68.256018712" height="68.256018712" x="418.7537200150368" y="52.61534713272725"><path d="M17.5 15.5C17.5 16.61 16.61 17.5 15.5 17.5S13.5 16.61 13.5 15.5 14.4 13.5 15.5 13.5 17.5 14.4 17.5 15.5M8.5 13.5C7.4 13.5 6.5 14.4 6.5 15.5S7.4 17.5 8.5 17.5 10.5 16.61 10.5 15.5 9.61 13.5 8.5 13.5M23 15V18C23 18.55 22.55 19 22 19H21V20C21 21.11 20.11 22 19 22H5C3.9 22 3 21.11 3 20V19H2C1.45 19 1 18.55 1 18V15C1 14.45 1.45 14 2 14H3C3 10.13 6.13 7 10 7H11V5.73C10.4 5.39 10 4.74 10 4C10 2.9 10.9 2 12 2S14 2.9 14 4C14 4.74 13.6 5.39 13 5.73V7H14C17.87 7 21 10.13 21 14H22C22.55 14 23 14.45 23 15M21 16H19V14C19 11.24 16.76 9 14 9H10C7.24 9 5 11.24 5 14V16H3V17H5V20H19V17H21V16Z"/></svg><g><g/><text fill="black" stroke="none" font-family="sans-serif" font-size="11pt" font-style="normal" font-weight="normal" text-decoration="normal" x="423.12944818207194" y="138.46312324472726" text-anchor="start" dominant-baseline="alphabetic" xml:space="preserve">Assistant</text></g><path fill="none" stroke="none"/><g><path fill="white" stroke="black" paint-order="fill stroke markers" d=" M 661.6725459681517 96.24290548472726 L 809.123347148222 96.24290548472726 L 809.123347148222 143.74065046472725 L 661.6725459681517 143.74065046472725 L 661.6725459681517 96.24290548472726 Z" stroke-miterlimit="10" stroke-width="2.814681184" stroke-dasharray=""/></g><g><g/><text fill="black" stroke="none" font-family="sans-serif" font-size="11pt" font-style="normal" font-weight="normal" text-decoration="normal" x="680.7596027471517" y="126.14889306472728" text-anchor="start" dominant-baseline="alphabetic" xml:space="preserve">openweather.org</text></g></g><g><g><text fill="black" stroke="none" font-family="sans-serif" font-size="16pt" font-style="normal" font-weight="normal" text-decoration="normal" x="258.53124237060547" y="26.547561167272725" text-anchor="start" dominant-baseline="alphabetic" xml:space="preserve">How tool calling DOESN’T work</text></g><g><rect fill="white" stroke="none" x="45.09586485789144" y="178.92416526472726" width="10.17596472" height="22.86928462"/><rect fill="white" stroke="none" x="45.09586485789144" y="196.51592266472727" width="89.05226934646484" height="22.86928462"/><rect fill="white" stroke="none" x="45.09586485789144" y="214.10768006472728" width="386.96893347" height="22.86928462"/><rect fill="white" stroke="none" x="45.09586485789144" y="231.69943746472728" width="10.17596472" height="22.86928462"/><text fill="black" stroke="none" font-family="sans-serif" font-size="11pt" font-style="normal" font-weight="normal" text-decoration="normal" x="47.73462846789144" y="194.75674692472728" text-anchor="start" dominant-baseline="alphabetic" xml:space="preserve">{</text><text fill="black" stroke="none" font-family="sans-serif" font-size="11pt" font-style="normal" font-weight="normal" text-decoration="normal" x="47.73462846789144" y="212.3485043247273" text-anchor="start" dominant-baseline="alphabetic" xml:space="preserve">  role: "user",</text><text fill="black" stroke="none" font-family="sans-serif" font-size="11pt" font-style="normal" font-weight="normal" text-decoration="normal" x="47.73462846789144" y="229.9402617247273" text-anchor="start" dominant-baseline="alphabetic" xml:space="preserve">  content: "What's the weather right now at Fenway Park?",</text><text fill="black" stroke="none" font-family="sans-serif" font-size="11pt" font-style="normal" font-weight="normal" text-decoration="normal" x="47.73462846789144" y="247.5320191247273" text-anchor="start" dominant-baseline="alphabetic" xml:space="preserve">}</text></g><g><path fill="none" stroke="black" paint-order="fill stroke markers" d=" M 24.278951934558105 254.56872208472726 L 438.39784911170347 254.56872208472726" stroke-miterlimit="10" stroke-width="1.4659797833333332" stroke-dasharray=""/><g transform="translate(452.8817293710368,254.56872208472726) translate(-452.8817293710368,-254.56872208472726)"><path fill="black" stroke="none" paint-order="stroke fill markers" d=" M 438.2219315377034 247.23882316806058 L 452.8817293710368 254.56872208472726 L 438.2219315377034 261.8986210013939 Z"/></g></g><g><rect fill="white" stroke="none" x="473.69864229437013" y="280.95635818472726" width="240.62458837722656" height="22.86928462"/><text fill="black" stroke="none" font-family="sans-serif" font-size="11pt" font-style="normal" font-weight="normal" text-decoration="normal" x="476.33740590437014" y="296.7889398447273" text-anchor="start" dominant-baseline="alphabetic" xml:space="preserve">GET /weather/current/us/02215.json</text></g><g><path fill="none" stroke="black" paint-order="fill stroke markers" d=" M 452.8817293710368 303.82564280472724 L 720.9140662988535 303.82564280472724" stroke-miterlimit="10" stroke-width="1.4659797833333332" stroke-dasharray=""/><g transform="translate(735.3979465581868,303.82564280472724) translate(-735.3979465581868,-303.82564280472724)"><path fill="black" stroke="none" paint-order="stroke fill markers" d=" M 720.7381487248535 296.4957438880606 L 735.3979465581868 303.82564280472724 L 720.7381487248535 311.1555417213939 Z"/></g></g><g><rect fill="white" stroke="none" x="481.7087502884497" y="330.21327890472725" width="224.86215246414062" height="22.86928462"/><text fill="black" stroke="none" font-family="sans-serif" font-size="11pt" font-style="normal" font-weight="normal" text-decoration="normal" x="484.34751389844973" y="346.04586056472726" text-anchor="start" dominant-baseline="alphabetic" xml:space="preserve">{"temp": 65, "conditions": "sunny"}</text></g><g><path fill="none" stroke="black" paint-order="fill stroke markers" d=" M 735.3979465581868 353.0825635247272 L 467.3656096303701 353.0825635247272" stroke-miterlimit="10" stroke-width="1.4659797833333332" stroke-dasharray=""/><g transform="translate(452.8817293710368,353.0825635247272) translate(-452.8817293710368,-353.0825635247272)"><path fill="black" stroke="none" paint-order="stroke fill markers" d=" M 467.54152720437014 345.75266460806057 L 452.8817293710368 353.0825635247272 L 467.54152720437014 360.41246244139387 Z"/></g></g><g><rect fill="white" stroke="none" x="57.70360812113607" y="379.47019962472723" width="10.17596472" height="22.86928462"/><rect fill="white" stroke="none" x="57.70360812113607" y="397.06195702472723" width="118.39991796707031" height="22.86928462"/><rect fill="white" stroke="none" x="57.70360812113607" y="414.65371442472724" width="361.753357298125" height="22.86928462"/><rect fill="white" stroke="none" x="57.70360812113607" y="432.24547182472725" width="10.17596472" height="22.86928462"/><text fill="black" stroke="none" font-family="sans-serif" font-size="11pt" font-style="normal" font-weight="normal" text-decoration="normal" x="60.34237173113607" y="395.30278128472725" text-anchor="start" dominant-baseline="alphabetic" xml:space="preserve">{</text><text fill="black" stroke="none" font-family="sans-serif" font-size="11pt" font-style="normal" font-weight="normal" text-decoration="normal" x="60.34237173113607" y="412.89453868472725" text-anchor="start" dominant-baseline="alphabetic" xml:space="preserve">  role: "assistant",</text><text fill="black" stroke="none" font-family="sans-serif" font-size="11pt" font-style="normal" font-weight="normal" text-decoration="normal" x="60.34237173113607" y="430.48629608472726" text-anchor="start" dominant-baseline="alphabetic" xml:space="preserve">  content: "It's 65 degrees and sunny—a beautiful day!"</text><text fill="black" stroke="none" font-family="sans-serif" font-size="11pt" font-style="normal" font-weight="normal" text-decoration="normal" x="60.34237173113607" y="448.07805348472726" text-anchor="start" dominant-baseline="alphabetic" xml:space="preserve">}</text></g><g><path fill="none" stroke="black" paint-order="fill stroke markers" d=" M 452.8817293710368 455.1147564447272 L 38.76283219389144 455.1147564447272" stroke-miterlimit="10" stroke-width="1.4659797833333332" stroke-dasharray=""/><g transform="translate(24.278951934558105,455.1147564447272) translate(-24.278951934558105,-455.1147564447272)"><path fill="black" stroke="none" paint-order="stroke fill markers" d=" M 38.93874976789144 447.78485752806057 L 24.278951934558105 455.1147564447272 L 38.93874976789144 462.44465536139387 Z"/></g></g></g><g/><g/><g/></g></svg>